<svg version="1.1" id="Layer_1" xmlns="http://www.w3.org/2000/svg" xmlns:xlink="http://www.w3.org/1999/xlink" x="0px" y="0px" width="100%" viewBox="0 0 512 512" enable-background="new 0 0 512 512" xml:space="preserve">
    <rect x="1" y="1" width="512" height="512" rx="40" ry="40" fill="#029CDF"/>
    <path fill="#FDFEFF" opacity="1.000000" stroke="none" d=" M77.788895,303.214508   C64.397636,290.806580 60.337219,274.957367 59.297882,257.915222   C57.196381,223.456497 79.412331,188.962494 112.292381,175.528641   C129.194077,168.623062 146.618134,165.994492 164.552841,170.202011   C175.363556,172.738251 184.729843,177.743164 187.119522,190.019226   C190.403839,206.891296 178.382782,220.928146 160.581818,220.845627   C148.420273,220.789276 138.261490,216.141296 130.906403,206.119019   C130.338486,205.345169 129.734604,204.597687 128.392014,202.860489   C124.333244,206.728683 119.971237,209.888275 116.884117,214.004135   C104.793396,230.123993 100.494392,248.330307 103.987770,268.209473   C105.946854,279.357727 113.019173,286.894531 122.545586,288.586365   C131.393738,290.157715 144.646179,284.166382 149.361481,276.180084   C149.992630,275.111084 149.681091,273.057312 149.103638,271.776215   C146.451340,265.892151 143.549545,260.120544 140.537506,253.895676   C151.735382,246.629669 163.098907,240.662186 176.474625,239.895645   C188.708710,239.194504 194.806915,245.223633 193.129837,257.488434   C191.601852,268.662964 188.430389,279.603394 186.581924,290.746277   C184.872070,301.053497 183.355896,311.468292 182.937790,321.883209   C182.722061,327.256927 185.079361,332.733917 186.409561,338.780060   C179.477280,345.656494 164.140640,348.710663 154.329376,344.435883   C146.413544,340.986908 144.437622,333.699188 143.008621,326.228180   C142.329117,322.675720 142.186356,319.020599 141.799591,315.403931   C118.710251,320.391205 96.889923,319.815399 77.788895,303.214508  z"/>
    <path fill="#FDFEFF" opacity="1.000000" stroke="none" d=" M271.066498,172.962982   C273.288513,173.009781 275.186798,173.065598 277.027802,172.767746   C285.520325,171.393692 294.025726,168.571075 302.473450,168.751633   C323.060028,169.191589 338.031738,184.638733 340.351562,206.127777   C344.152283,241.333984 317.772949,270.881378 281.134064,271.966675   C272.238129,272.230225 263.299744,271.059235 253.734833,270.510864   C252.020523,282.008484 252.010803,293.871277 256.782471,305.164093   C258.478516,309.178040 257.388763,310.648438 254.205795,312.536316   C245.828262,317.505310 236.828323,319.055176 227.325470,317.841766   C218.922638,316.768890 212.935455,310.589172 210.847992,301.293427   C208.383774,290.319946 209.784348,279.373962 211.462265,268.512634   C214.558517,248.470322 218.074188,228.492859 221.178543,208.451736   C221.576859,205.880234 221.108139,202.862411 220.097122,200.446320   C217.608871,194.500000 214.570755,188.783768 211.784561,183.038528   C227.657562,171.138199 252.412399,162.307175 271.066498,172.962982  M278.111572,243.700989   C286.844543,239.245346 292.856750,232.533417 295.404297,222.921997   C300.027069,205.481155 287.756714,191.221207 271.131927,194.536011   C267.761475,195.208054 266.578827,196.795685 266.051208,200.042969   C263.945343,213.003769 261.551636,225.917725 259.273468,238.850632   C258.828552,241.376297 258.423950,243.909073 257.942261,246.788422   C265.110809,247.556732 271.450073,247.149857 278.111572,243.700989  z"/>
    <path fill="#FDFEFF" opacity="1.000000" stroke="none" d=" M371.647369,287.172394   C375.144989,261.063751 378.593750,235.388733 382.143646,208.960892   C370.239044,211.025162 357.922821,213.160812 345.631226,215.292175   C337.990997,189.484146 351.632812,168.858353 374.475769,170.506409   C384.740204,171.246994 395.138306,172.165817 405.105835,174.550217   C423.545074,178.961182 441.539185,178.925217 459.492554,172.747314   C461.667145,171.999023 463.937164,171.528152 466.150940,170.931946   C472.701599,193.382828 463.355682,212.767990 441.506470,215.672455   C439.857910,215.891617 438.194489,216.015350 436.534149,216.126465   C432.963165,216.365387 428.232941,215.269913 426.135193,217.140610   C423.936768,219.101074 424.148773,223.873001 423.507080,227.451981   C420.689697,243.165131 417.456940,258.825745 415.334106,274.634216   C413.753845,286.401978 414.793030,298.204468 420.471039,309.309967   C410.773560,316.587708 400.286682,319.881683 388.498779,317.768311   C378.947388,316.055847 372.869995,307.830627 371.991791,296.084106   C371.780945,293.264038 371.725433,290.432343 371.647369,287.172394  z"/>
    <path fill="#059DDF" opacity="1.000000" stroke="none" d=" M277.770264,243.861099   C271.450073,247.149857 265.110809,247.556732 257.942261,246.788422   C258.423950,243.909073 258.828552,241.376297 259.273468,238.850632   C261.551636,225.917725 263.945343,213.003769 266.051208,200.042969   C266.578827,196.795685 267.761475,195.208054 271.131927,194.536011   C287.756714,191.221207 300.027069,205.481155 295.404297,222.921997   C292.856750,232.533417 286.844543,239.245346 277.770264,243.861099  z"/>
</svg>